<svg xmlns="http://www.w3.org/2000/svg" viewBox="0 0 350.41 61.52"><defs><style>.cls-1{fill:#bed8e6;}.cls-2{fill:#1c2f42;}</style></defs><title>Asset 71</title><g id="Layer_2" data-name="Layer 2"><g id="Layer_1-2" data-name="Layer 1"><polygon class="cls-1" points="265.84 25.36 262.69 30.76 311.04 14.47 314.85 10.67 265.84 25.36"/><polygon class="cls-1" points="262.69 30.76 259.7 35.86 306.55 18.97 311.04 14.47 262.69 30.76"/><polygon class="cls-2" points="259.7 35.86 257.3 39.98 300.75 24.35 306.55 18.97 259.7 35.86"/><polygon class="cls-2" points="257.37 39.85 254.34 44.98 295.1 29.48 300.75 24.35 257.37 39.85"/><path d="M61.85,44.06c0,9.81-10.31,17.46-29.35,17.46C18.62,61.52,6.57,57.19,0,48.88l2-1.83c6.41,8.23,17.63,12,30.6,12,17.21,0,26.52-6.56,26.52-14.88,0-8.64-10.48-11.22-27.77-13-14.8-1.49-29.18-4.4-29.18-15S16.13,0,30.76,0C43.39,0,52.87,3.74,58.61,10.06l-2.25,1.66C50.54,5.15,41.48,2.58,30.84,2.49,19.12,2.41,4.9,6.9,4.9,16c0,8.65,12.89,11.23,27.94,12.64C50,30.34,61.85,33.58,61.85,44.06Z"/><path d="M175.57,59.85,144.32,25.94,121.79,42.56V59.85h-2.66V1.66h2.66V39.49L173.16,1.66h4l-30.67,22.7,32.67,35.49Z"/><polygon points="290.13 59.85 293.13 59.85 260.21 1.66 257.21 1.66 224.29 59.85 227.29 59.85 237.51 41.65 238.93 39.16 241.52 34.56 236.14 43.83 241.52 34.56 258.63 4.24 278.41 39.16 279.73 41.65 290.13 59.85"/><path d="M347.75,59.85V1.66h2.66V59.85Z"/></g></g></svg>