<svg xmlns="http://www.w3.org/2000/svg" viewBox="0 0 184.36 32.37"><defs><style>.cls-1{fill:#bed8e6;}.cls-2{fill:none;}</style></defs><title>Asset 81</title><g id="Layer_2" data-name="Layer 2"><g id="Layer_1-2" data-name="Layer 1"><polygon class="cls-1" points="139.87 13.35 138.21 16.18 163.65 7.62 165.66 5.62 139.87 13.35"/><polygon class="cls-1" points="138.21 16.18 136.64 18.87 161.29 9.98 163.65 7.62 138.21 16.18"/><polygon class="cls-2" points="136.64 18.87 135.38 21.03 158.24 12.81 161.29 9.98 136.64 18.87"/><polygon class="cls-2" points="135.41 20.97 133.82 23.67 155.26 15.51 158.24 12.81 135.41 20.97"/><path class="cls-1" d="M32.54,23.18c0,5.16-5.42,9.19-15.44,9.19-7.3,0-13.64-2.28-17.1-6.65l1.05-1c3.37,4.33,9.27,6.29,16.1,6.29,9.05,0,14-3.45,14-7.82,0-4.55-5.51-5.91-14.61-6.83C8.7,15.61,1.14,14.08,1.14,8.49S8.49,0,16.18,0c6.65,0,11.64,2,14.66,5.29l-1.19.88c-3.06-3.46-7.82-4.81-13.42-4.86-6.17,0-13.65,2.32-13.65,7.13,0,4.55,6.78,5.91,14.7,6.65C26.33,16,32.54,17.67,32.54,23.18Z"/><path class="cls-1" d="M92.38,31.49,75.93,13.65,64.08,22.39v9.1h-1.4V.87h1.4V20.78L91.11.87h2.1l-16.14,12L94.26,31.49Z"/><polygon class="cls-1" points="152.65 31.49 154.23 31.49 136.91 0.88 135.33 0.88 118.01 31.49 119.58 31.49 124.97 21.91 125.71 20.6 127.07 18.18 124.24 23.06 127.07 18.18 136.07 2.23 146.48 20.6 147.18 21.91 152.65 31.49"/><path class="cls-1" d="M183,31.49V.87h1.4V31.49Z"/></g></g></svg>