<svg xmlns="http://www.w3.org/2000/svg" viewBox="0 0 196.34 42.61"><defs><style>.cls-1{fill:#231f20;}</style></defs><title>Asset 11</title><g id="Layer_2" data-name="Layer 2"><g id="Layer_1-2" data-name="Layer 1"><path class="cls-1" d="M25.46,29.24a1.67,1.67,0,0,1-.44.89,12.83,12.83,0,0,1-10.33,4.62A13.81,13.81,0,0,1,4,30.25a15.63,15.63,0,0,1-4-11A16,16,0,0,1,3.91,8.36,13.17,13.17,0,0,1,14.28,3.67q6.86,0,10.74,4.21a1.31,1.31,0,0,1,.42.82,13.19,13.19,0,0,1-1.47,3,16.46,16.46,0,0,1-1.85,2.89.54.54,0,0,1-.42.17,5.81,5.81,0,0,1-1.06-.84,10.81,10.81,0,0,0-2.24-1.59,7.58,7.58,0,0,0-3.46-.84,6,6,0,0,0-5,2.32,8.31,8.31,0,0,0-1.71,5.33A8.48,8.48,0,0,0,10,24.51a6,6,0,0,0,5,2.36,7.83,7.83,0,0,0,3.49-.8,10.83,10.83,0,0,0,2.19-1.48,5,5,0,0,1,1-.8.56.56,0,0,1,.42.23c.23.25.84,1.13,1.84,2.64A14.72,14.72,0,0,1,25.46,29.24Z"/><path class="cls-1" d="M36.55,33.84a2.16,2.16,0,0,1-1.68,0,.66.66,0,0,1-.35-.65V22.59a34.25,34.25,0,0,0-.28-5.39,11.75,11.75,0,0,0-.93-3.31A4,4,0,0,0,31.9,12.2a3.43,3.43,0,0,0-1.75-.47h-.69V33.15a.66.66,0,0,1-.35.65,1.87,1.87,0,0,1-.82.17,2,2,0,0,1-.87-.17.66.66,0,0,1-.34-.65V.82a.67.67,0,0,1,.34-.65A2,2,0,0,1,28.29,0a1.87,1.87,0,0,1,.82.17.67.67,0,0,1,.35.65V9.35H30a6,6,0,0,1,3.65,1.17,6.83,6.83,0,0,1,2.07,2.89,15.75,15.75,0,0,1,1,4.18,49.44,49.44,0,0,1,.24,5v10.6A.66.66,0,0,1,36.55,33.84Z"/><path class="cls-1" d="M54.3,34H49.15l.34-1.38-1.08-6.28-.56-.56H44.26l-.57.56-1,6.28L43,34H37.85l.95-2.81L43.65,3l-.43-1.86h5.62L48.41,3,53.3,31.16ZM44.91,21.64h2.2l.44-.35L46,12.5l-1.51,8.79Z"/><path class="cls-1" d="M81,3.63a94,94,0,0,0-.59,11q0,4.81.59,13.94a.69.69,0,0,1-.25,0,1.42,1.42,0,0,1-.44-.08,1.47,1.47,0,0,0-.45-.08l0-.43-.3-.76,0-.25-.42-.42-.3,1,.6,1-.43.59-.63.17v1.1c-.93.39-1.75.75-2.45,1.06q-1.9-8.53-2.54-13.91a59.26,59.26,0,0,0-3.8,12.85l-1-.08v1.81a18.59,18.59,0,0,1-1.77.68q-1.86-2.67-5.37-8.12Q61,28.11,60.62,33c-.48.19-1.2.52-2.15,1a17.06,17.06,0,0,1-.59-1.82c-.31.28-.79.68-1.44,1.19.05.47.11,1,.17,1.64-.57-.08-1.38-.18-2.45-.29,0-1.33,0-2.61,0-3.85a100.18,100.18,0,0,1,2-20.32A17.42,17.42,0,0,1,58,9.76a15.58,15.58,0,0,1,.59-1.48l2.07-.21-.38.76.68,2.07.38-1.19-.13-1.09.13-.34L61.17,8c1.38-.11,2.61-.22,3.68-.33l-.51,1.77,0,.51a9.81,9.81,0,0,0,1.33-.29q-.51,1.39-1,3.12a27.49,27.49,0,0,0,2.27,9.8A63.08,63.08,0,0,1,69.54,7.26a16.13,16.13,0,0,1,1.77.34L70.85,8V9.63l.55-.72.17-.8.17-.21,0-.21L72.83,8c0-.48,0-1.21.08-2.2a16.64,16.64,0,0,1,2.89-.46.77.77,0,0,1,.61.4.76.76,0,0,0,.65.4A5.32,5.32,0,0,0,78.9,5,7.07,7.07,0,0,1,81,3.63ZM58,13.81l-.08-.38-.51.43v1.05l.38-.46.09-.51Zm1.86-1.73-.12-.59-.77.72v1.65l.55-.76.17-.81ZM77.74,25.9l-.3-.76,0-.25-.42-.43-.25,1,.84,1.39Z"/><path class="cls-1" d="M90.17,14.89c4.93,0,7.7,4.11,7.7,8.35,0,.26-.13.43-.39.43H85.62v1c0,4.85.61,6.79,1.82,8a4.32,4.32,0,0,0,3.25,1.21,7.42,7.42,0,0,0,6.49-4.37c0-.13.43.08.39.21a8.47,8.47,0,0,1-7.4,4.76c-5.07,0-9.18-4.15-9.18-9.82A9.5,9.5,0,0,1,90.17,14.89Zm-2.82,1.42c-1.21,1.22-1.77,3.64-1.77,6.93h7.66c.39,0,.43,0,.43-.48,0-3.42-.52-5.58-1.55-6.62A2.92,2.92,0,0,0,90,15.27,3.3,3.3,0,0,0,87.35,16.31Z"/><path class="cls-1" d="M101.72,10.3a67.76,67.76,0,0,1,2.68-7.92A7.87,7.87,0,0,1,107.69.69a.89.89,0,0,1,.52.17C109.9,2,110.72,5.23,110.72,8c0,5-3,11.47-8,13-.17,1.77-.3,3.5-.3,5,0,4.81,1.38,6.8,2.94,6.8,1.34,0,3.29-1.56,4.89-6.36l1.08.34c-1.38,4.07-3.72,7.66-7,7.66-2.29,0-5.28-1.77-5.28-8.26C99.08,22.07,100.25,15.62,101.72,10.3Zm6.8-1a9.4,9.4,0,0,0-1.78-6c-.91,2.6-1.56,5-1.95,6.62-.6,2.47-1.38,6.28-1.86,9.7C106.52,18.39,108.52,13.72,108.52,9.35Z"/><path class="cls-1" d="M124.8,23.62h-8.07v5.72c0,.84.34,1.25,1,1.25s1-.41,1-1.25V24.4h6v5q0,5-7.08,5t-7-5.17V14.49q0-5.18,7-5.18t7.08,5Zm-6-3.68V14.32q0-1.2-1-1.2c-.69,0-1,.4-1,1.2v5.62Z"/><path class="cls-1" d="M136.32,14.24c6,0,10.51,4,10.51,10.12a10.16,10.16,0,0,1-10,10.3c-5.76,0-10.47-4-10.47-10.12C126.41,19,130.52,14.24,136.32,14.24Zm.52,19.3c4.32,0,6-5,6-8.74,0-3.55-1.9-9.44-6.49-9.44-4.28,0-6,5-6,8.74C130.39,27.65,132.29,33.54,136.84,33.54Z"/><path class="cls-1" d="M144.8,37.16c0,.12.26.21.78.3-.49,1.45-1,2.18-1.56,2.18a3.74,3.74,0,0,0-1.71,1h-.13A17,17,0,0,0,140,39a1.55,1.55,0,0,0-.65-.1v-.19a4.36,4.36,0,0,0,.91-.3l-.13-.21v-.19a1.61,1.61,0,0,0,.78-.3A1.36,1.36,0,0,0,142.31,39c.79-.15,1.18-.32,1.18-.5v-.89A2.88,2.88,0,0,0,144.8,37.16Zm-3.15-18.38c.54,0,.81.39.81,1.18a.74.74,0,0,1-.81.53l-.38-.53v-.4C141.33,19,141.46,18.78,141.65,18.78Zm30.3,7c.2.16.41.31.64.47-.41-.26-.81-.49-1.19-.72l-.23-.11.17.07a24.45,24.45,0,0,0-4.1-1.95,2.23,2.23,0,0,0,0,.36,8.9,8.9,0,0,1,.25,1.69,6.85,6.85,0,0,0-.38,2V28c.16,1.31.77,2,1.84,2,1.48.8,2.22,1.28,2.22,1.43a4.33,4.33,0,0,1,.53,1.44v.27c-.07.69-.38,1-.93,1a7.41,7.41,0,0,0-1.44-.38l-2.54.32v.16h.3q.27,0,.27-.21l.55.21q.3,0,.3-.21l1.12.45a.51.51,0,0,1,.57-.43c0,.72.45,1.09,1.37,1.1a.53.53,0,0,1,.58-.42l.54.66-.57,0v.24a.5.5,0,0,0,.55.42L174,36q.57-.06.57-.42v-.21l-1.69,0a7.09,7.09,0,0,0,1.19-1.91h.27c.3,0,.66.29,1.1.87q-.56,0-.57.42c.93.11,1.4.33,1.4.66l-1.12,0v.23a.47.47,0,0,0,.54.42l1.12,0v-.21l-.27-.44h.27a5.18,5.18,0,0,0,1.67.67v.22c-.49,0-3.86.09-10.1.29v-.63l-.84,0q0,.66-.3.66c-1.11-.17-1.67-.39-1.67-.67H167v-.63l-1.4,0v-.21q0-.24.3-.21l-.28-.45v-.21l-1.3.17a16.88,16.88,0,0,0-2.9-.38c-.31,0-.65-.61-1-1.84A2.57,2.57,0,0,1,162.87,30c.8,0,1.29-.61,1.46-1.84V26.89c0-.1-.1-.57-.28-1.43a4.87,4.87,0,0,0,.28-1.19V22.92a7.27,7.27,0,0,0-2,.15l-.47,0Q159,24.38,158,29.39a5.43,5.43,0,0,0,.36,3l-.87-.17a1.79,1.79,0,0,1,0,.24c0,.93-.78,1.58-2.35,1.94H151.1a9.47,9.47,0,0,0-2.12-.63h-1.56c-.87-.13-1.31-.57-1.31-1.31v-.28c0-.69.57-1.25,1.71-1.69a6.37,6.37,0,0,0,1.16.13c.93,0,1.51-.87,1.72-2.62a5,5,0,0,1-.26-1.18V26c.17-.84.26-1.32.26-1.43s-.09-.6-.26-1.46V21l.13-.78a2.13,2.13,0,0,1-.28-.79,5.7,5.7,0,0,0,.15-1.05.85.85,0,0,0-.15-.38l.15-.78v-.66c-.62-.7-1-1.06-1.18-1.06a1.53,1.53,0,0,1-.78.26,2.43,2.43,0,0,1-.81-.26c-.52.17-.78.31-.78.41a1.05,1.05,0,0,1-.78-1.06v-.4a3.06,3.06,0,0,1,1.44-2.22h.78a2,2,0,0,1,2,.91h.41c0-.26.17-.47.52-.66h.26c.36.44.58.66.65.66h.28l.38-.26c.12,0,.26.14.4.41l-.28.38v.4h.28c.08,0,.26-.18.53-.53a4,4,0,0,0,1.31.53h.12c1-.88,1.67-1.31,2.1-1.31l.4.25h.25c0-.6.48-.91,1.44-.91,0-.08.17-.12.53-.12,0,.16.11.25.25.25h.4l.66-.78h.53l.5.78A1.71,1.71,0,0,0,163,12c3,1.4,4.44,3.37,4.44,5.89l.28-.15.12.28c-.26,0-.4.08-.4.25v.4a13.45,13.45,0,0,1,.28,1.44v1.18c-.2.85-.34,1.5-.43,1.95a24.51,24.51,0,0,1,2.64,1.2l1.82,1.21.57.19q6,1.92,11,3.3a42.33,42.33,0,0,0,5.57,1.36,1,1,0,0,1,.8.2l3.93.42a3,3,0,0,1,.55-.11s0,0,0,.07l1.25-.41c-.45.45-.77.65-.95.57-.69,0-1.48,0-2.36-.06s-1.89-.14-3-.25L189,31Q172.47,26.09,172.42,26Zm-23.09,13a8.33,8.33,0,0,1,1.84.78q0,.21-2.1,1.5-.57.78-.78.78h-.53c-.12,0-.26-.1-.4-.29a4.5,4.5,0,0,0,.53-1.59A3.54,3.54,0,0,0,148.86,38.75Zm-1.44-25.08v.4h.4v-.4Zm2.87-10.61s.06,0,.13.08v0a.68.68,0,0,0,.28.15s0,0,0,0a1.47,1.47,0,0,0,0,.17,1.91,1.91,0,0,1-.13.63l0,.11c0,.14-.09.21-.19.21v0a.53.53,0,0,0,0,.19c0,.19-.1.28-.17.28l.05.08V5c-.09,0-.13,0-.13.11v.21l0,.11s-.09.08-.15.25c0,0,0,0,0,.06a.42.42,0,0,1,.09.22s-.05,0-.05,0,.05,0,.05,0l-.32.06c0-.09-.11-.19-.32-.27a.39.39,0,0,0-.4-.23,5.08,5.08,0,0,1-.59,0c-.2-.35-.42-.53-.68-.53h0a2.31,2.31,0,0,0,0-.38.29.29,0,0,0,.15.06c.27-.14.4-.26.4-.38l.09.07q.33-.21.36-.36l.1,0c.13-.21.25-.32.36-.32a0,0,0,0,0,0,0c.09-.31.24-.46.45-.46S150.29,3.2,150.29,3.06Zm-1.81,9.7-.15.25.27.13h.13V13A.22.22,0,0,0,148.48,12.76Zm.78.91v.4h.38v-.4Zm1.69.12c0,.19.12.28.27.28h.26v-.28c0-.17-.09-.25-.26-.25S151,13.65,151,13.79Zm1.31,27.43v.1c0,.19-.2.35-.51.49a1.43,1.43,0,0,1-.4.8h-.25a1.18,1.18,0,0,1,.78-1.09C151.88,41.42,152,41.32,152.26,41.22ZM152,14.6V15h.4V14.6Zm.9,1.16.28.15.13-.28V15.5h-.13C153,15.53,152.91,15.62,152.91,15.76Zm4.36,15.91c.73-4.8,1.62-7.5,2.68-8.07a4.91,4.91,0,0,1,4.38-1.19V20.49Q164,17.34,163,17.34q-.31,0-1.71-1.71l-.91-.13a9.09,9.09,0,0,0-2.89,1.19,4.5,4.5,0,0,1-.91.91l.13.78a3.11,3.11,0,0,1-.66,1.52l.43,0-.26.38a1.34,1.34,0,0,1-.38-.19l-.17.11c0,.63-.53,1.37-1.58,2.22a10.22,10.22,0,0,0-.66,2.23v.39a12.47,12.47,0,0,1,.28,1.45,2.49,2.49,0,0,0-.4,1.31c0,1.74.74,2.78,2.21,3.13A2.53,2.53,0,0,1,157.27,31.67ZM153.84,14.6V15h.39V14.6Zm0,3.65v.4h.39v-.4Zm.91-.91v.38h.4v-.38Zm0,1.84v.38h.4v-.38Zm.93-4.58V15h.38V14.6Zm0,3.65v.4h.38v-.4Zm.91-4.58v.4h.4v-.4Zm12.7,25.86h.27c0,.46.1.7.26.7a.6.6,0,0,0-.13.4c-.13,0-.26-.1-.4-.3Zm2.54-7.48,1.43,0c.17,0,.26-.11.26-.25l0-.26-1.71.11ZM173,34.67l.4,0v-.4H173Zm3.42-.85.25-.12h.28c0,.18,0,.27.12.27a.85.85,0,0,0-.14.38h-.13C176.62,34.35,176.5,34.18,176.37,33.82Zm.91.41v-.39h.25v.39Zm1.31-4.44h.27v.13l-.15.25h.66a7.7,7.7,0,0,0-.13.78c0,.38.4.95,1.19,1.71a1.06,1.06,0,0,1,.12.4h-.12l.12.26a1.11,1.11,0,0,0-.12.52h.12l-.38.66c.12,0,.28.22.51.66-.17,0-.25.12-.25.38a5.45,5.45,0,0,1-2.1-2.35v-.65c.17-1.48.26-2.32.26-2.5Zm17,.67-.19.19.48-.14-.13-.05Zm0,0h-.09l.85-1v.11C196.06,29.93,195.8,30.22,195.58,30.46Z"/></g></g></svg>